<svg xmlns="http://www.w3.org/2000/svg" viewBox="0 0 612 262"><path d="M68 139.868c0 61.01.161 67.98 1.582 68.525.87.334 7.122.607 13.893.607C96.662 209 97 208.865 97 203.585c0-3.636 1.069-3.731 4.829-.431 11.166 9.804 30.746 9.428 42.133-.81 18.083-16.258 19.45-62.493 2.405-81.359-9.081-10.052-29.127-13.155-40.268-6.235-2.877 1.787-5.419 3.25-5.647 3.25-.228 0-.535-10.237-.683-22.75L99.5 72.5l-15.75-.275L68 71.949v67.919m203 4.118v65.035l43.25-.26 43.25-.261v-26L331 182l-26.5-.5-.5-51-.5-51-16.25-.275L271 78.95v65.036m-70.246-31.96c-10.909 2.741-22.177 11.706-27.08 21.545-7.296 14.643-7.922 37.473-1.389 50.692 8.96 18.128 24.94 26.478 48.917 25.56 12.975-.497 21.99-3.825 30.548-11.278 5.238-4.562 5.339-3.67-1.362-12.045-3.08-3.85-6.219-7.875-6.974-8.943-1.353-1.915-1.408-1.912-3.656.201-9.272 8.71-26.734 9.266-34.889 1.111-7.807-7.807-7.825-7.802 24.881-8.104l28.75-.265-.171-11.723c-.34-23.283-8.722-38.306-24.956-44.729-6.577-2.602-25.615-3.782-32.619-2.022m195.27.577c-19.738 5.304-30.97 22.847-31.009 48.437C364.967 191.976 382.08 210 411.5 210c28.922 0 44.87-15.879 46.2-46 1.217-27.552-10.119-45.732-32.2-51.639-6.543-1.75-22.551-1.619-29.476.242m98.476-.212c-15.981 5.025-25.928 20.798-27.188 43.109-1.744 30.892 12.143 52.655 34.627 54.264 9.624.688 15.116-.365 20.503-3.933 5.434-3.6 5.839-3.44 4.975 1.962-2.347 14.675-20.796 19.291-36.217 9.06-2.365-1.569-4.465-2.853-4.667-2.853-1.123 0-12.607 18.366-12.18 19.479 2.316 6.034 21.133 12.865 35.647 12.941 29.441.154 46.356-12.794 49.127-37.604.78-6.981.75-94.27-.033-96.594-.052-.153-6.281-.153-13.844 0l-13.75.278-.957 3.25c-1.17 3.975-1.346 3.983-6.026.264-6.293-5.002-20.267-6.688-30.017-3.623m-389 24.554c-5.32 2.178-5.565 3.299-5.272 24.119l.272 19.358 3.398 2.289c7.181 4.837 17.63 2.425 20.493-4.73 3.652-9.127 3.002-30.4-1.121-36.692-3.03-4.624-11.83-6.775-17.77-4.344m100.059 2.137c-3.299 2.897-6.122 9.197-4.962 11.074.286.464 6.359.844 13.493.844 14.593 0 14.769-.095 12.926-6.941-2.248-8.346-14.407-11.167-21.457-4.977m198.623-1.052c-5.502 3.355-7.49 9.372-7.49 22.676 0 17.364 5.163 25.078 16.044 23.973 9.964-1.012 13.635-7.501 13.68-24.179.045-16.9-4.579-24.493-14.916-24.493-2.255 0-5.448.883-7.318 2.023m105.263-1.071c-14.26 5.775-14.436 39.252-.245 46.636 5.527 2.875 16.118.328 17.878-4.3 1.27-3.341 1.179-35.946-.108-38.35-2.23-4.168-11.736-6.33-17.525-3.986" fill-rule="evenodd"></path></svg>